<svg xmlns="http://www.w3.org/2000/svg" width="88.83" height="19.41" viewBox="0 0 88.83 19.41"><defs><style>.a{fill:#010101;}</style></defs><title>Asset 3</title><path class="a" d="M88.83,14.36s0,.08,0,.12a17.16,17.16,0,0,1-4.33,1.06c-2.39.51-4.76,1.12-7.15,1.65a19.45,19.45,0,0,1-13.55-1.62c-2.36-1.22-4.76-2.34-7.15-3.51-.18-.08-.37-.15-.55-.23a3.06,3.06,0,0,0,1,.93c1.82.94,3.66,1.85,5.5,2.76,1.2.6,2.41,1.18,3.61,1.8a3.92,3.92,0,0,1,.68.62c-1.45.54-2.68,0-3.94-.27s-2.52-.54-3.76-.86-2.49-.73-3.74-1.1a7.19,7.19,0,0,1,2.32,1.62,8.19,8.19,0,0,1-2.13.34,16.8,16.8,0,0,1-3.81-.81C49.53,16,47.31,15,45.06,14a7.09,7.09,0,0,0-.71-.22c1.62,2.07,3.86,3.33,5.79,5a5.24,5.24,0,0,1-1.4.12c-.89,0-1.78-.17-2.67-.16A17.33,17.33,0,0,1,37.21,17s-.11,0-.22,0a1.59,1.59,0,0,0,0,.3c.2.64.12.78-.55.77a2.76,2.76,0,0,1-1-.15c-1-.44-2-.94-3-1.42l-.85-.4c0,.15-.1.22-.09.3.07.58-.18.71-.69.49a13.12,13.12,0,0,1-2.18-.9c-1.95-1.27-3.84-2.62-5.74-3.94-.82-.58-1.62-1.18-2.43-1.78l-.14.11a3.11,3.11,0,0,0,.26.8,15.64,15.64,0,0,0,1.79,2.45,15.84,15.84,0,0,0,6.91,4,7.81,7.81,0,0,1,1.18.55l-.06.28a4.47,4.47,0,0,1-1,0,14.5,14.5,0,0,1-4.84-2.22c-2.1-1.39-4.14-2.87-5-5.42-.08-.23-.38-.38-.58-.56a7,7,0,0,0,2.54,4.07c.33.23.72.44.42,1.14a8.61,8.61,0,0,1-1.66-1.22,28.86,28.86,0,0,1-1.74-2.56c-.26-.39-.56-.75-.84-1.13.33.74.77,1.4,1.07,2.11a18,18,0,0,1,.7,2.25,6.37,6.37,0,0,0,1.73,3.11,4.6,4.6,0,0,1,.69,1.26l-.62,0a9.52,9.52,0,0,1-2.37-4A28.94,28.94,0,0,0,17.3,12a1.79,1.79,0,0,0-1.61-1.05c.37.79.75,1.53,1.06,2.29A3.43,3.43,0,0,1,17,15.68a5,5,0,0,1-.76-1.29c-.24-.64-.36-1.32-.62-2a8.85,8.85,0,0,0-.77-1.27,6.09,6.09,0,0,0,.95,4.15,5.29,5.29,0,0,1,.34,1.07,2.23,2.23,0,0,1-1.56-1.61c-.19-.63-.27-1.3-.46-1.94s-.38-1.06-.57-1.55c-.55.06-.69.27-.54.65s.41,1,.56,1.44.21.88.31,1.32l-.29.14a7.5,7.5,0,0,1-.82-1.14,6.76,6.76,0,0,1-.39-1.37c-.12-.51-.33-.71-.91-.55Q7.41,12.95,3.32,14a15.2,15.2,0,0,1-2.2.38A1.09,1.09,0,0,1,0,13.75a4.22,4.22,0,0,1,2.65-1.62c2.32-.55,4.65-1.06,7-1.59.44-.1.88-.16,1.42-.26a2.79,2.79,0,0,1-.3-.61,4.2,4.2,0,0,1,0-.77,3.3,3.3,0,0,1,.7.44,2,2,0,0,1,.26.63c.25-.87-.33-1.81.49-2.62.71.62.08,1.48.47,2.18a6.53,6.53,0,0,0,1.14-2.86,2.52,2.52,0,0,0-.53-1.92c-.27-.36,0-.59.37-.6.7,0,.79.58.81,1,.05.91,0,1.82,0,2.74,0,.46,0,.93,0,1.39l.24.05,1.54-4.14c1,1.11-.06,1.94-.13,2.92a3.25,3.25,0,0,0,1-1.78c.2-.76.36-1.53.52-2.31.08-.39.27-.46.62-.34a1.48,1.48,0,0,1,1.06,1.51c1.8-1.7,4-2.19,6.3-2.47,1.79-.22,3.59-.41,5.37-.68,2.31-.36,4.65-.65,6.69-2,.26-.16.66-.09,1-.13l.11.3a10.86,10.86,0,0,1-1.15.85,11.74,11.74,0,0,0-4.5,4.29c-.07.12-.11.26-.23.52l.45-.28c2.53-1.67,5.06-3.34,7.6-5A8.75,8.75,0,0,1,42.24.1l.09.19C41.86,1.56,40.47,1.91,39.58,3l.55-.18C42.09,2.2,44,1.57,46,1,47.27.67,48.56.46,49.83.18l.5,0L47.75,3.41A42.28,42.28,0,0,1,56.3,2.06,10.49,10.49,0,0,1,58,2c.23,0,.44.25.66.38a3,3,0,0,1-.48.6,5,5,0,0,1-.82.43c.84,0,1.65-.1,2.46-.07q5.41.25,10.82.58a2.07,2.07,0,0,1,1.8,1.08L63.45,9.92l.12.24c.55-.26,1.11-.5,1.64-.79,1.37-.74,2.7-1.56,4.09-2.24a7,7,0,0,1,6-.2c1.52.65,3,1.35,4.49,2.14C82.42,10.49,85,12,87.65,13.46A9.87,9.87,0,0,1,88.83,14.36ZM64.2,4.7l.45-.32"/></svg>