<?xml version="1.0" encoding="UTF-8" standalone="no"?>
<svg width="599px" height="128px" viewBox="0 0 599 128" version="1.1" xmlns="http://www.w3.org/2000/svg" xmlns:xlink="http://www.w3.org/1999/xlink">
    <!-- Generator: Sketch 39.1 (31720) - http://www.bohemiancoding.com/sketch -->
    <title>logo</title>
    <desc>Created with Sketch.</desc>
    <defs></defs>
    <g id="Page-1" stroke="none" stroke-width="1" fill="none" fill-rule="evenodd">
        <g id="birdie-lander" transform="translate(-213.000000, -48.000000)" fill="#000104">
            <g id="logo" transform="translate(212.000000, 47.000000)">
                <g id="Asset-4">
                    <path d="M15.0715596,1.63647458 C15.0715596,1.47172881 15.3027523,1.3179661 15.7761468,1.18616949 C16.3227341,1.05718952 16.8919448,1.05718952 17.4385321,1.18616949 C18.1499914,1.36239913 18.8075632,1.70925577 19.3541284,2.19661017 C20.0266853,2.76590796 20.497629,3.53611484 20.6972477,4.39322034 C21.0660176,6.00203517 21.1958445,7.65617474 21.0825688,9.30264407 C20.9944954,11.3015593 20.8036697,13.3407458 20.5100917,15.4202034 C20.2165138,17.499661 19.8752294,19.4949153 19.4862385,21.4059661 C19.1500249,22.9819851 18.9146869,24.5777523 18.7816514,26.1835932 C19.2954128,25.1658305 20.1027523,23.7856271 21.2036697,22.0429831 C22.3045872,20.300339 23.5816514,18.4698305 25.0348624,16.5514576 C26.5027523,14.5964746 28.0366972,12.7073898 29.6366972,10.8842034 C31.0431669,9.23073037 32.6778273,7.78484466 34.4917431,6.58983051 C35.9855285,5.67438218 37.7156592,5.21614539 39.4678899,5.27186441 C41.3043922,5.3386915 42.9640828,6.38244427 43.8165138,8.00664407 C45.5660337,10.8424569 46.2670031,14.199126 45.7981651,17.496 C45.372392,21.3124291 44.2924598,25.0274967 42.6055046,28.4790508 C40.8605501,32.1319308 38.5784946,35.5043201 35.8348624,38.4846102 C33.4344326,41.236675 30.5026751,43.4779017 27.2146789,45.0744407 C33.0862385,43.8004068 37.9192661,44.2031186 41.7137615,46.2825763 C45.3632123,48.2127803 48.1241856,51.4748028 49.4201835,55.3875254 C52.5688073,53.9231186 55.6990826,52.5648814 58.8110092,51.3128136 C61.267346,50.2533069 63.808343,49.40097 66.4073394,48.7647458 C66.6642202,49.4456949 66.7926606,49.7422373 66.7926606,49.6543729 C66.7926606,49.5665085 66.9211009,49.6946441 67.1779817,50.0387797 C61.6440367,51.9937627 57.3651376,53.6485424 54.3412844,55.0031186 C52.7868446,55.6445244 51.2722179,56.3780354 49.8055046,57.1997288 C50.1326307,60.8625609 50.0032027,64.5517271 49.4201835,68.1827797 C48.7834652,72.4296801 47.7590211,76.6096407 46.359633,80.6705085 C44.8876953,84.9618989 43.0459505,89.1180401 40.8550459,93.092339 C38.752869,96.9680504 36.2274214,100.599896 33.3247706,103.921627 C30.660037,106.977022 27.5097383,109.574397 24,111.609763 C20.7247377,113.514199 17.0019843,114.518473 13.2110092,114.520271 C10.7269908,114.60434 8.26958387,113.98764 6.12110092,112.741017 C4.27103833,111.651425 2.82306594,109.995023 1.99266055,108.018305 C1.15549501,105.82879 0.890301086,103.462826 1.22201835,101.142915 C1.60841079,98.2357247 2.53826635,95.4266989 3.96330275,92.8616949 C6.06145534,89.0342025 8.56772325,85.4439038 11.4385321,82.1532203 C14.2045137,79.0100139 17.21577,76.0903707 20.4440367,73.4216949 C23.7460544,70.7030952 27.2132032,68.1905168 30.8256881,65.8983051 C34.4954128,63.5625763 38.3706422,61.2488136 42.4513761,58.9570169 C42.3049091,57.1359143 41.9351781,55.3395972 41.3504587,53.6082712 C40.7652297,51.9870028 39.7987463,50.5294186 38.5321101,49.3578305 C37.2913378,48.1791285 35.7790378,47.3229348 34.1284404,46.864678 C31.99208,46.3433853 29.7667897,46.2983851 27.6110092,46.7328814 C25.0282712,47.2999931 22.5505281,48.2672441 20.2678899,49.5994576 C17.5889908,51.0638644 14.8,52.5282712 11.9009174,53.992678 C11.5559633,55.6913898 11.0862385,57.6463729 10.4917431,59.8576271 C9.89724771,62.0688814 9.27706422,64.3204068 8.63119266,66.6122034 C8.0146789,68.904 7.43853211,71.1335593 6.90275229,73.3008814 C6.45475081,75.1099773 6.11288603,76.9435986 5.87889908,78.7924068 C5.25994066,78.2952982 4.42845747,78.1501339 3.67706422,78.408 C2.20917431,76.7092881 1.50825688,74.1831864 1.57431193,70.8296949 C1.68808282,66.9530048 2.16725914,63.0955954 3.00550459,59.3084746 C3.93761468,55.0031186 5.08990826,50.3463051 6.46238532,45.3380339 C7.83486239,40.3297627 9.19633028,35.2775593 10.546789,30.1814237 C11.8678899,25.056 12.9944954,20.0440678 13.9266055,15.1456271 C14.8220204,10.7006734 15.2061559,6.16831202 15.0715596,1.63647458 L15.0715596,1.63647458 Z M42.5394495,60.6264407 C38.2079099,62.7091925 34.0641665,65.1601422 30.1541284,67.9521356 C26.2527404,70.7176798 22.5416608,73.7411421 19.0458716,77.0021695 C15.802628,80.0099926 12.8093239,83.275347 10.0954128,86.7661017 C7.80892383,89.6490081 5.83808115,92.7676273 4.21651376,96.0687458 C3.54721841,97.5605752 3.03439776,99.1174702 2.68623853,100.714576 C2.34483306,102.096063 2.34483306,103.539598 2.68623853,104.921085 C3.04208529,106.176592 3.86513117,107.24912 4.98715596,107.919458 C6.59704027,108.76609 8.41223568,109.146529 10.2275229,109.017763 C13.6918622,109.023836 17.083723,108.028149 19.9926606,106.151186 C23.0964533,104.1729 25.858785,101.706424 28.1724771,98.8474576 C30.6701342,95.761598 32.8120324,92.4053235 34.5577982,88.8418983 C36.3292239,85.2844774 37.866425,81.6156891 39.159633,77.8588475 C40.2968753,74.6050714 41.1910629,71.2717557 41.8348624,67.8862373 C42.3280277,65.4982158 42.5642285,63.0644921 42.5394495,60.6264407 L42.5394495,60.6264407 Z M12.8146789,51.2029831 C13.3915914,50.9509163 13.9474755,50.6534344 14.4770642,50.3133559 C15.4972477,49.7202712 16.6238532,49.039322 17.8568807,48.2705085 C19.0899083,47.5016949 20.3045872,46.7365424 21.5009174,45.9750508 C22.6899083,45.2428475 23.4972477,44.6900339 23.9229358,44.3166102 C25.9846636,42.6554153 27.7619743,40.670886 29.1853211,38.440678 C30.9111869,35.8136503 32.4066406,33.0429693 33.6550459,30.1594576 C34.983433,27.1023099 36.0872603,23.952855 36.9577982,20.736 C37.8202716,17.6182177 38.4821706,14.4486416 38.9394495,11.2466441 C39.1963303,8.86698305 39.0055046,7.44284746 38.3669725,6.97423729 C37.5900569,6.50079366 36.6011912,6.55317521 35.8788991,7.1060339 C34.7265322,7.75859379 33.6736656,8.57225941 32.7522936,9.52230508 L30.1431193,12.0813559 C25.5379682,17.0429196 21.8148549,22.7517661 19.133945,28.9623051 C16.1247149,36.0929962 13.9917699,43.5608726 12.7816514,51.2029831 L12.8146789,51.2029831 Z" id="Shape"></path>
                    <path d="M87.2256881,48.7757288 C86.5431193,50.7307119 85.7541284,53.0444746 84.8587156,55.7170169 C83.9633028,58.3895593 82.9834862,61.1719322 81.9192661,64.0641356 C80.8844037,66.956339 79.7394495,69.8448814 78.4844037,72.7297627 C77.3568366,75.4038442 76.0549691,78.0014006 74.587156,80.5057627 C73.7497308,81.9254056 72.8115553,83.2834497 71.7798165,84.5694915 C70.7908056,85.8193204 69.5245674,86.8231399 68.0807339,87.5019661 C67.165617,87.915726 66.1361907,88.0048604 65.1633028,87.7545763 C64.2310814,87.4875017 63.4092218,86.9293473 62.8183486,86.1620339 C62.1094914,85.2361322 61.5997802,84.1742611 61.3211009,83.0428475 C60.9573037,81.6296299 60.7833046,80.1744607 60.8036697,78.7155254 C60.8024843,74.6443967 61.0857395,70.5781362 61.6513761,66.5463051 C62.2018349,62.5997288 62.733945,58.6714576 63.2477064,54.7614915 L64.2715596,46.227661 C65.2781311,45.5504154 66.5760058,45.4787167 67.6513761,46.0409492 C68.8109451,46.6046981 69.5705042,47.7539626 69.6330275,49.039322 C69.6938211,51.23884 69.6129206,53.4399825 69.3908257,55.6291525 C69.1486239,58.5579661 68.866055,61.6588475 68.5431193,64.9317966 C68.2201835,68.2047458 67.9376147,71.4117966 67.6954128,74.5529492 C67.453211,77.6941017 67.3321101,80.1982373 67.3321101,82.0653559 C67.3321101,83.9324746 67.640367,84.8989831 68.2568807,84.9648814 C69.0488082,84.9700344 69.8009407,84.6190653 70.3045872,84.0093559 C71.1350166,83.2236801 71.8736608,82.3467792 72.506422,81.3953898 C73.1889908,80.3776271 73.6587156,79.6454237 73.9155963,79.1987797 C74.8477064,77.4122034 75.8678899,75.2668475 76.9761468,72.7627119 C78.0844037,70.2585763 79.1853211,67.604339 80.2788991,64.8 C81.387156,61.995661 82.4293578,59.1730169 83.4055046,56.3320678 C84.3816514,53.4911186 85.2550459,50.8808136 86.0256881,48.5011525 C86.2459672,47.9522848 86.6303676,47.4844291 87.1266055,47.1612203 C87.5376147,46.8829831 87.5706422,47.4211525 87.2256881,48.7757288 L87.2256881,48.7757288 Z M65.6477064,34.4977627 C65.9599871,33.7699494 66.4857979,33.153492 67.1559633,32.7294915 C67.7692437,32.3287982 68.4730936,32.0871879 69.2036697,32.0265763 C69.8615085,31.9792479 70.5089122,32.2104844 70.987156,32.6635932 C71.5313164,33.2566183 71.7673944,34.0687489 71.6256881,34.8602034 C71.5376147,35.5924068 71.4311927,36.4197966 71.306422,37.3423729 C71.1825105,38.2210544 70.7992703,39.0430656 70.2055046,39.7037288 C69.8040174,40.2778331 69.2817743,40.7576065 68.6752294,41.1095593 C68.1747126,41.4196378 67.6016406,41.5938017 67.012844,41.6147797 C66.4791875,41.6044589 65.9815603,41.344028 65.6697248,40.9118644 C65.2075298,40.2108465 64.9624764,39.3895738 64.9651376,38.5505085 C64.8218557,37.1664568 65.0577626,35.7695579 65.6477064,34.5087458 L65.6477064,34.4977627 Z" id="Shape"></path>
                    <path d="M115.838532,48.1387119 C113.878899,54.5967458 111.59633,61.0108475 108.990826,67.3810169 C106.385321,73.7511864 103.816514,79.6088136 101.284404,84.9538983 C100.601835,86.3157966 100.007339,87.5678644 99.5009174,88.7101017 C98.9944954,89.852339 98.4146789,91.0348475 97.7614679,92.2576271 C97.1229358,93.4511186 96.4220183,94.7031864 95.6587156,96.0138305 C94.8954128,97.3244746 93.959633,98.7888814 92.8513761,100.407051 C91.9500275,101.56528 90.7935755,102.501024 89.4715596,103.141831 C88.3111627,103.742501 87.0122904,104.026665 85.706422,103.965559 C84.5485497,103.901274 83.4653323,103.374805 82.7009174,102.504814 C81.7726598,101.274267 81.3334704,99.7446637 81.4678899,98.2104407 C81.3594953,95.9906904 81.5971882,93.7676072 82.1724771,91.6206102 C82.8110092,88.779661 83.640367,85.6385085 84.6605505,82.1971525 C85.6807339,78.7557966 86.7816514,75.2082712 87.9633028,71.5545763 C89.1522936,67.8935593 90.1944954,64.5400678 91.0899083,61.4941017 C91.9853211,58.4481356 92.6238532,55.8854237 93.0055046,53.8059661 C93.387156,51.7704407 93.3247706,50.6245424 92.8183486,50.3682712 C90.536164,49.3261781 88.1629023,48.4953016 85.7284404,47.8861017 C83.6595708,47.4668649 81.7514637,46.4731965 80.2238532,45.0195254 C78.8762343,43.5542086 78.0956701,41.6580449 78.0220183,39.6707797 C77.94727,37.5677956 78.2722579,35.4697036 78.9798165,33.487322 C79.6887318,31.437126 80.7018332,29.5045837 81.9853211,27.7541695 C83.0731051,26.2067671 84.4126917,24.8517979 85.9486239,23.7453559 C86.8784195,22.9966477 88.0601112,22.6311925 89.2513761,22.7239322 C90.1533107,22.8562082 90.9550426,23.3680991 91.453211,24.1297627 C92.0167966,25.0353895 92.3668832,26.0568692 92.4770642,27.1171525 C92.6456536,28.2568793 92.6456536,29.4151207 92.4770642,30.5548475 C92.1321101,32.4219661 91.7284404,34.2048814 91.266055,35.9035932 C90.8036697,37.6023051 90.3302752,39.1802034 89.8458716,40.6372881 C89.3761468,42.1016949 88.9504587,43.3976949 88.5688073,44.5252881 C88.187156,45.6528814 87.8678899,46.5022373 87.6110092,47.0733559 C88.4623853,47.4174915 89.5633028,47.8202034 90.9137615,48.2814915 C92.2642202,48.7427797 93.5633028,49.1894237 94.8110092,49.6214237 C96.2788991,50.0461017 97.1302752,51.3201356 97.3651376,53.4435254 C97.5890297,56.0597625 97.4258136,58.6946285 96.8807339,61.2634576 C96.3229358,64.3240678 95.533945,67.6592542 94.5137615,71.2690169 C93.493578,74.8787797 92.3926606,78.3823729 91.2110092,81.7797966 C90.0880734,85.1772203 89.0422018,88.2781017 88.0733945,91.0824407 C87.1045872,93.8867797 86.466055,96.0101695 86.1577982,97.4526102 C85.7981673,98.5182671 85.7751104,99.6683753 86.0917431,100.747525 C86.3198048,101.334411 86.8709548,101.733905 87.5009174,101.768949 C88.2422425,101.78378 88.9721927,101.585522 89.6036697,101.197831 C90.3766974,100.766519 91.0694095,100.20549 91.6513761,99.5393898 C92.4880629,98.5757587 93.2257036,97.5307944 93.853211,96.4202034 C94.587156,95.1901017 95.3211009,93.8941017 96.0550459,92.5322034 C96.7889908,91.1703051 97.4715596,89.7901017 98.1027523,88.3915932 C98.7412844,86.9930847 99.3577982,85.6970847 99.9522936,84.5035932 C101.655046,80.9377627 103.295413,77.2767458 104.873394,73.5205424 C106.451376,69.764339 107.856881,66.2387797 109.089908,62.9438644 C110.322936,59.6343051 111.423853,56.6615593 112.392661,54.0256271 C113.361468,51.3896949 114.044037,49.3505085 114.440367,47.9080678 C114.523401,47.5704865 114.698713,47.2625166 114.946789,47.0184407 C115.118605,46.8175039 115.338127,46.6626929 115.585321,46.5681356 C115.750459,46.5681356 115.882569,46.5681356 115.970642,46.8207458 C116.035979,47.26422 115.990601,47.7169266 115.838532,48.1387119 L115.838532,48.1387119 Z M82.8110092,40.2418983 C82.3853211,43.639322 83.533945,45.7627119 86.2568807,46.6120678 C86.7706422,45.2574915 87.2807339,43.8150508 87.787156,42.2847458 C88.293578,40.7544407 88.7559633,39.2461017 89.1743119,37.7597288 C89.6440367,36.295322 90.0110092,34.9151186 90.2752294,33.6191186 C90.5316135,32.5701966 90.7228033,31.506476 90.8477064,30.4340339 C90.939659,29.6503125 90.983777,28.8617399 90.9798165,28.072678 C90.9961511,27.2954725 90.8883809,26.5206268 90.6605505,25.7772203 C90.5444508,25.2684047 90.2213868,24.8307168 89.7688073,24.5690847 C89.387156,24.400678 88.8110092,24.7411525 88.040367,25.5905085 C87.401055,26.391997 86.8647794,27.27014 86.4440367,28.2044746 C85.8862385,29.3540339 85.3541284,30.6061017 84.8477064,31.960678 C84.3412844,33.3152542 83.893578,34.7174237 83.5045872,36.1671864 C83.1701307,37.5085236 82.9201013,38.8694179 82.7559633,40.2418983 L82.8110092,40.2418983 Z" id="Shape"></path>
                    <path d="M156.187156,48.7757288 C155.504587,50.8112542 154.546789,53.5277288 153.313761,56.9251525 C152.080734,60.3225763 150.719266,63.932339 149.229358,67.7544407 C147.761468,71.5765424 146.209174,75.3364068 144.572477,79.0340339 C142.93578,82.731661 141.445872,85.9387119 140.102752,88.6551864 C139.508897,89.9020001 138.847365,91.1155967 138.121101,92.2905763 C137.241439,93.7550642 136.235818,95.1404837 135.115596,96.4311864 C134.151308,97.5878557 132.983561,98.5592893 131.669725,99.2977627 C130.551527,99.9440073 129.137482,99.7592206 128.223853,98.8474576 C127.025449,97.6912783 126.250193,96.1676486 126.022018,94.5201356 C125.561058,92.1890389 125.303215,89.8225118 125.251376,87.4470508 C125.168423,84.5791599 125.230888,81.7089187 125.438532,78.847322 C125.651376,75.7867119 125.948624,72.792 126.330275,69.8631864 C126.711927,66.9343729 127.115596,64.1959322 127.541284,61.6478644 C127.966972,59.0997966 128.333945,57.020339 128.642202,55.4094915 C127.927694,56.9126393 127.137701,58.378906 126.275229,59.8027119 C125.379817,61.2671186 124.466055,62.7534915 123.533945,64.2618305 C122.601835,65.7701695 121.644037,67.1503729 120.66055,68.4024407 C119.684404,69.6764746 118.770642,70.7747797 117.919266,71.6973559 C116.578245,73.2514625 114.893574,74.4734288 112.998165,75.2668475 C111.745862,75.7835794 110.334948,75.7597224 109.100917,75.2009492 C107.901328,74.5514845 106.955288,73.5187244 106.414679,72.2684746 C104.860223,68.9411722 104.52139,65.1762259 105.456881,61.6258983 C105.962044,59.6908662 106.659059,57.8108149 107.537615,56.0135593 C108.373799,54.2153349 109.356935,52.4888276 110.477064,50.8515254 C111.46748,49.364534 112.673227,48.0321072 114.055046,46.8976271 C115.215221,45.8482728 116.658129,45.1609859 118.205505,44.920678 C119.631624,44.7046513 121.086281,44.7680716 122.488073,45.1073898 C123.84843,45.4470282 125.128025,46.0517139 126.253211,46.8866441 C127.341749,47.676643 128.30963,48.6200299 129.126606,49.687322 C129.552294,47.307661 129.977982,44.503322 130.40367,41.2743051 C130.829358,38.0452881 131.317431,34.776 131.86789,31.4664407 C132.415598,28.2197835 133.150766,25.0073861 134.069725,21.8452881 C134.844268,19.0677273 135.953265,16.3940104 137.372477,13.8825763 C138.296097,12.1506564 139.493047,10.5782875 140.917431,9.22576271 C141.973858,8.21880395 143.209798,7.41790802 144.561468,6.86440678 C145.49906,6.47154205 146.541236,6.40197086 147.522936,6.66671186 C148.417707,6.97054636 149.139118,7.6422659 149.504587,8.51186441 C150.293397,10.4490914 150.599394,12.5482988 150.39633,14.6294237 C150.194294,17.0765987 149.702806,19.4913416 148.93211,21.823322 C148.087495,24.4165115 147.064893,26.948602 145.87156,29.4016271 C144.638532,31.9496949 143.33945,34.3696271 141.974312,36.6614237 C140.609174,38.9532203 139.288073,41.0546441 138.011009,42.9656949 C136.733945,44.8767458 135.713761,46.4253559 134.950459,47.6115254 C134.355963,51.4336271 133.73945,55.512 133.100917,59.8466441 C132.462385,64.1812881 131.886239,68.3658305 131.372477,72.4002712 C130.858716,76.4347119 130.411009,80.1506441 130.029358,83.5480678 C129.693231,86.2524367 129.502133,88.9727862 129.456881,91.6974915 C129.376844,92.8467043 129.439708,94.0013818 129.644037,95.1351864 C129.856881,96.4092203 130.304587,97.0901695 130.987156,97.1780339 C132.007339,97.2658983 133.284404,96.2664407 134.818349,94.179661 C136.628883,91.6365408 138.230427,88.9515966 139.607339,86.1510508 C141.266055,82.8854237 142.924771,79.275661 144.583486,75.3217627 C146.242202,71.3678644 147.794495,67.5457627 149.240367,63.8554576 C150.708257,60.1944407 151.941284,56.9251525 152.93945,54.0475932 C153.937615,51.1700339 154.67156,49.2370169 155.141284,48.2485424 C155.272269,47.7464419 155.561774,47.2997364 155.966972,46.9745085 C156.282569,46.8207458 156.355963,47.4211525 156.187156,48.7757288 L156.187156,48.7757288 Z M114.682569,55.2776949 C114.11125,56.4404634 113.600478,57.6318792 113.152294,58.8471864 C112.638532,60.2090847 112.168807,61.5892881 111.743119,62.9877966 C111.336964,64.3019092 111.017021,65.6410138 110.785321,66.9966102 C110.585041,68.1318964 110.478262,69.2816349 110.466055,70.4343051 C110.466055,72.0451525 110.700917,73.0629153 111.170642,73.4875932 C111.66271,73.91634 112.361885,74.0153701 112.954128,73.7402034 C113.760851,73.4252116 114.506051,72.9717184 115.155963,72.4002712 C115.889908,71.7632542 116.52844,71.1884746 117.07156,70.6759322 C118.544895,69.029113 119.930298,67.3060502 121.222018,65.5138983 C122.543119,63.6907119 123.73578,61.8858305 124.8,60.0992542 C125.86422,58.312678 126.759633,56.6578983 127.486239,55.1349153 C128.075232,53.9667567 128.518889,52.7311536 128.807339,51.4555932 C128.107496,49.9337023 126.954153,48.6642001 125.504587,47.8202034 C124.350236,47.1906914 122.983569,47.0750795 121.73945,47.5016949 C120.286243,48.0474824 118.992229,48.945858 117.974312,50.115661 C116.624351,51.6623375 115.514743,53.4023997 114.682569,55.2776949 L114.682569,55.2776949 Z M149.031193,10.0494915 C148.939874,9.47978691 148.560169,8.99750168 148.027005,8.77401473 C147.493841,8.55052778 146.882798,8.61752022 146.411009,8.95118644 C145.089908,9.54427119 143.706422,11.2429831 142.26055,14.047322 C140.219973,18.8796816 138.720966,23.9222214 137.790826,29.0831186 C136.851376,34.2671186 136,39.4474576 135.236697,44.6241356 C137.141607,42.1723167 138.891776,39.6046456 140.477064,36.936 C142.344227,33.8405901 144.006489,30.626682 145.453211,27.3148475 C146.824478,24.206591 147.929346,20.9880328 148.755963,17.6936949 C149.530848,15.2163206 149.629654,12.577637 149.042202,10.0494915 L149.031193,10.0494915 Z" id="Shape"></path>
                    <path d="M177.390826,48.7757288 C176.708257,50.7307119 175.919266,53.0444746 175.023853,55.7170169 C174.12844,58.3895593 173.148624,61.1719322 172.084404,64.0641356 C171.020183,66.9490169 169.87156,69.8375593 168.638532,72.7297627 C167.510965,75.4038442 166.209098,78.0014006 164.741284,80.5057627 C163.903859,81.9254056 162.965684,83.2834497 161.933945,84.5694915 C160.944934,85.8193204 159.678696,86.8231399 158.234862,87.5019661 C157.319745,87.915726 156.290319,88.0048604 155.317431,87.7545763 C154.38521,87.4875017 153.56335,86.9293473 152.972477,86.1620339 C152.26362,85.2361322 151.753909,84.1742611 151.475229,83.0428475 C151.111432,81.6296299 150.937433,80.1744607 150.957798,78.7155254 C150.949317,74.6449082 151.225215,70.5786502 151.783486,66.5463051 C152.333945,62.5997288 152.866055,58.6714576 153.379817,54.7614915 L154.40367,46.227661 C155.410241,45.5504154 156.708116,45.4787167 157.783486,46.0409492 C158.943055,46.6046981 159.702614,47.7539626 159.765138,49.039322 C159.825931,51.23884 159.745031,53.4399825 159.522936,55.6291525 C159.280734,58.5579661 158.998165,61.6588475 158.675229,64.9317966 C158.352294,68.2047458 158.069725,71.4117966 157.827523,74.5529492 C157.585321,77.6941017 157.46422,80.1982373 157.46422,82.0653559 C157.46422,83.9324746 157.761468,84.9099661 158.355963,84.9978305 C159.147891,85.0029835 159.900023,84.6520144 160.40367,84.0423051 C161.234099,83.2566292 161.972743,82.3797284 162.605505,81.428339 C163.288073,80.4105763 163.757798,79.6783729 164.014679,79.2317288 C164.946789,77.4451525 165.966972,75.2997966 167.075229,72.795661 C168.183486,70.2915254 169.284404,67.6372881 170.377982,64.8329492 C171.486239,62.0286102 172.52844,59.2059661 173.504587,56.3650169 C174.480734,53.5240678 175.361468,50.9101017 176.146789,48.5231186 C176.374666,47.9904345 176.758363,47.5387468 177.247706,47.2271186 C177.680734,46.9049492 177.72844,47.4211525 177.390826,48.7757288 L177.390826,48.7757288 Z M155.812844,34.4977627 C156.129107,33.7628607 156.663074,33.1420162 157.343119,32.7185085 C157.9564,32.3178151 158.66025,32.0762049 159.390826,32.0155932 C160.048664,31.9682649 160.696068,32.1995014 161.174312,32.6526102 C161.718472,33.2456353 161.95455,34.0577658 161.812844,34.8492203 C161.724771,35.5814237 161.618349,36.4088136 161.493578,37.3313898 C161.369666,38.2100714 160.986426,39.0320825 160.392661,39.6927458 C159.991173,40.2668501 159.46893,40.7466234 158.862385,41.0985763 C158.361869,41.4086547 157.788797,41.5828187 157.2,41.6037966 C156.666343,41.5934759 156.168716,41.333045 155.856881,40.9008814 C155.394686,40.1998635 155.149632,39.3785907 155.152294,38.5395254 C155.000732,37.1620868 155.225159,35.7693887 155.801835,34.5087458 L155.812844,34.4977627 Z" id="Shape"></path>
                    <path d="M210.968807,48.7757288 C210.029358,50.7307119 208.858716,53.0884068 207.456881,55.8488136 C206.055046,58.6092203 204.480734,61.4977627 202.733945,64.5144407 C200.987156,67.5311186 199.2,70.5258305 197.372477,73.4985763 C195.544954,76.471322 193.73578,79.1475254 191.944954,81.5271864 C190.434657,83.5248917 188.790531,85.4183052 187.023853,87.1944407 C185.678017,88.6520319 183.985466,89.747502 182.102752,90.3795254 C180.471191,90.8454974 178.716427,90.5637917 177.313761,89.6107119 C175.73578,88.6368814 174.223853,86.5757288 172.777982,83.4272542 C171.780392,80.9709667 171.156971,78.3795426 170.92844,75.7391186 C170.535494,72.2281008 170.406694,68.6926528 170.543119,65.1624407 C170.685056,61.2672349 171.13415,57.389221 171.886239,53.564339 C172.597103,49.847454 173.704314,46.2170547 175.188991,42.7350508 C176.457172,39.6807124 178.228385,36.8594349 180.429358,34.3879322 C182.354306,32.1838429 185.005503,30.7386875 187.904587,30.3132203 C189.27682,30.0190497 190.7097,30.2462 191.922936,30.9502373 C192.972527,31.6118902 193.77962,32.5942841 194.223853,33.7509153 C194.708348,35.0746295 194.903537,36.4863908 194.79633,37.8915254 C194.708196,39.5354774 194.335735,41.1518391 193.695413,42.6691525 C192.319357,45.5239787 190.388387,48.0775621 188.014679,50.1815593 C185.376162,52.7307616 182.279997,54.7614081 178.888073,56.167322 C178.719266,57.016678 178.52844,58.6934237 178.315596,61.1975593 C178.102752,63.7016949 177.952294,66.4181695 177.86422,69.3469831 C177.776147,72.2757966 177.820183,75.1863051 177.99633,78.0785085 C178.070551,80.3623326 178.414203,82.6294823 179.020183,84.8330847 C179.702752,86.8686102 180.722936,87.9303051 182.080734,88.0181695 C183.438532,88.1060339 184.972477,87.3006102 186.682569,85.6018983 C189.34241,82.8285848 191.717535,79.796817 193.772477,76.5518644 C196.282569,72.7297627 198.66789,68.8637288 200.92844,64.9537627 C203.188991,61.0437966 205.126606,57.4962712 206.741284,54.3111864 C208.355963,51.1261017 209.376147,49.024678 209.801835,48.0069153 C210.058716,47.3259661 210.425688,46.9598644 210.902752,46.9086102 C211.379817,46.8573559 211.401835,47.4797288 210.968807,48.7757288 L210.968807,48.7757288 Z M187.089908,32.9491525 C185.218349,34.2231864 183.6,36.6028475 182.234862,40.0881356 C180.580953,44.7532104 179.425914,49.5796121 178.788991,54.4869153 C180.181426,54.0002326 181.494555,53.3119204 182.686239,52.4440678 C184.230168,51.378062 185.681187,50.1839961 187.023853,48.8745763 C188.383534,47.5646688 189.62161,46.1347024 190.722936,44.6021695 C191.666637,43.3755091 192.341743,41.9648939 192.704587,40.4615593 C193.033795,39.1297194 193.163642,37.7566106 193.089908,36.3868475 C193.0578,35.2892375 192.751267,34.2170306 192.198165,33.267661 C191.768295,32.5082004 191.014092,31.9863659 190.150459,31.8508475 C189.027167,31.813906 187.932225,32.2068353 187.089908,32.9491525 L187.089908,32.9491525 Z" id="Shape"></path>
                    <path d="M213.137615,106.876068 C214.784461,104.556612 216.791274,102.513778 219.082569,100.824407 C221.55015,99.1155393 224.295099,97.8447864 227.19633,97.0682034 C227.790826,94.7764068 228.407339,91.803661 229.045872,88.1499661 C229.684404,84.4962712 230.26055,80.780339 230.774312,77.0021695 C231.288073,73.224 231.776147,69.6764746 232.238532,66.3595932 C232.700917,63.0427119 233.06789,60.5385763 233.33945,58.8471864 C232.744954,59.6965424 231.977982,60.6740339 231.038532,61.779661 L228.231193,65.0745763 C227.291743,66.1802034 226.355963,67.2199322 225.423853,68.1937627 C224.491743,69.1675932 223.724771,69.8997966 223.122936,70.3903729 C222.440367,71.071322 221.970642,71.1335593 221.713761,70.5770847 C221.456881,70.0206102 221.823853,69.4055593 222.814679,68.7319322 C223.669197,68.0594088 224.441473,67.2889651 225.115596,66.4364746 C226.13578,65.2503051 227.177982,63.9543051 228.242202,62.5484746 L231.302752,58.539661 C232.278899,57.2656271 232.93945,56.4162712 233.284404,55.9915932 C233.622018,53.6997966 234.047706,50.8954576 234.561468,47.5785763 C235.075229,44.2616949 235.651376,40.9667797 236.289908,37.6938305 C236.92844,34.3842712 237.588991,31.3053559 238.27156,28.4570847 C238.74489,26.2509773 239.430641,24.09562 240.319266,22.0210169 C241.853211,18.7114576 243.343119,16.6503051 244.788991,15.8375593 C245.90185,15.0381034 247.387839,14.9860872 248.554128,15.7057627 C249.76753,16.6638672 250.605235,18.0165638 250.921101,19.5278644 C251.437292,21.4156712 251.568322,23.3876529 251.306422,25.3269153 C250.948971,27.8548902 250.306364,30.3344812 249.390826,32.7185085 C248.496342,35.0854278 247.474678,37.4025489 246.330275,39.6597966 C245.222018,41.8564068 244.121101,43.8113898 243.027523,45.5247458 C241.933945,47.2381017 241.104587,48.6622373 240.53945,49.7971525 C240.113761,52.7698983 239.666055,56.167322 239.19633,59.9894237 C238.726606,63.8115254 238.194495,67.8020339 237.6,71.9609492 C237.005505,76.1271864 236.388991,80.3739661 235.750459,84.7012881 C235.111927,89.0286102 234.411009,93.1472542 233.647706,97.0572203 C236.031334,97.0676133 238.407415,97.3252702 240.737615,97.8260339 C243.198393,98.3566778 245.610446,99.0914351 247.948624,100.022644 C251.612419,101.420221 255.036644,103.376512 258.099083,105.821695 C261.111607,108.230656 263.316086,111.498875 264.418349,115.190237 C264.641059,115.850083 264.77074,116.537612 264.80367,117.233085 C264.80367,117.738305 264.330275,118.07878 263.394495,118.254508 C262.778734,114.727579 261.082602,111.477658 258.53945,108.951864 C256.050829,106.450064 253.159374,104.382214 249.985321,102.834305 C246.992708,101.358216 243.816057,100.287071 240.53945,99.6492203 C238.10883,99.1109384 235.61737,98.8967307 233.130275,99.0122034 C232.136748,101.497922 230.916969,103.887576 229.486239,106.151186 C228.074263,108.423521 226.448575,110.55654 224.631193,112.521356 C223.065562,114.24401 221.233116,115.705005 219.20367,116.848678 C217.640731,117.817536 215.759492,118.136903 213.963303,117.738305 C212.876081,117.540132 211.937128,116.861815 211.409174,115.893153 C210.97707,114.956107 210.8023,113.921347 210.902752,112.89478 C210.997434,111.764897 211.257056,110.654872 211.673394,109.599864 C212.031931,108.628333 212.524768,107.711539 213.137615,106.876068 L213.137615,106.876068 Z M218.884404,115.025492 C220.113836,114.031395 221.151023,112.821733 221.944954,111.456 C222.859313,109.974205 223.650931,108.420438 224.311927,106.810169 C224.950459,105.235932 225.482569,103.749559 225.908257,102.351051 C226.333945,100.952542 226.631193,99.9530847 226.8,99.352678 C224.587828,99.7240357 222.49022,100.595652 220.66789,101.900746 C218.333681,103.384049 216.335178,105.336662 214.8,107.633898 C213.979843,108.74367 213.432992,110.030424 213.20367,111.390102 C212.977429,112.48593 213.041942,113.621702 213.390826,114.685017 C213.678982,115.532576 214.418812,116.147638 215.306422,116.277559 C216.616097,116.334739 217.897506,115.886327 218.884404,115.025492 L218.884404,115.025492 Z M245.306422,20.8787797 C244.880734,22.4090847 244.433028,24.2395932 243.963303,26.3703051 C243.493578,28.5010169 243.045872,30.7928136 242.620183,33.2456949 C242.194495,35.6692881 241.790826,38.0489492 241.409174,40.384678 C241.027523,42.7204068 240.708257,44.8218305 240.451376,46.6889492 C240.965138,45.8395932 241.73211,44.503322 242.752294,42.6801356 C243.772477,40.8569492 244.814679,38.8616949 245.878899,36.6943729 C246.96004,34.4831673 247.897748,32.2049892 248.686239,29.8738983 C249.443457,27.7515372 249.895651,25.5329088 250.029358,23.2840678 C250.15839,22.1653772 250.003165,21.0322801 249.577982,19.9891525 C249.321554,19.319019 248.817165,18.7725844 248.168807,18.4625085 C247.608667,18.2495821 246.977615,18.3454746 246.506422,18.7151186 C245.863437,19.2650946 245.444427,20.0308052 245.32844,20.8677966 L245.306422,20.8787797 Z" id="Shape"></path>
                    <path d="M257.614679,49.4237288 C258.194194,49.836738 258.690865,50.3545829 259.078899,50.9503729 C259.629358,51.6825763 260.161468,52.4696949 260.675229,53.3117288 C261.188991,54.1537627 261.636697,54.9372203 262.018349,55.6621017 L262.844037,57.3205424 C263.846375,59.9580965 264.469076,62.7240237 264.693578,65.5358644 C264.906572,68.1428795 264.884464,70.7637098 264.627523,73.3667797 C264.411945,75.5987746 263.984337,77.8052947 263.350459,79.9566102 C262.879545,81.5551854 262.32465,83.1279355 261.688073,84.668339 C260.220183,88.4098983 258.601835,90.8957288 256.833028,92.1258305 C255.072842,93.3555268 252.794548,93.5723895 250.833028,92.6969492 C248.745103,91.9632893 247.057739,90.3953374 246.176147,88.3696271 C245.27057,86.2801305 244.730645,84.0512578 244.579817,81.7797966 C244.223686,76.5212499 244.65409,71.2391067 245.856881,66.1069831 C247.045872,61.0987119 248.238532,56.2991186 249.434862,51.7082034 C249.691743,50.5220339 249.904587,49.4823051 250.073394,48.5890169 C250.230431,47.811345 250.315194,47.0208745 250.326606,46.227661 L250.326606,45.9750508 C251.747389,45.9555933 253.157982,46.2168856 254.477064,46.7438644 C255.394072,47.158409 256.359317,47.4572571 257.350459,47.6334915 C258.768809,47.8340677 260.204982,47.8782661 261.633028,47.7652881 C263.717431,47.6847458 265.889908,47.5785763 268.150459,47.4467797 C270.411009,47.3149831 272.477064,47.2307797 274.348624,47.1941695 C275.507,47.0647078 276.67968,47.1731008 277.794495,47.512678 L276.517431,48.4023051 C275.157962,48.3113092 273.794735,48.2893147 272.433028,48.3364068 C270.730275,48.380339 268.965138,48.4645424 267.137615,48.5890169 C265.310092,48.7134915 263.522936,48.8635932 261.776147,49.039322 L257.614679,49.4237288 Z M261.445872,57.5731525 C261.188991,56.9800678 260.847706,56.2808136 260.422018,55.4753898 C259.993476,54.6645266 259.523121,53.8763521 259.012844,53.1140339 C258.566437,52.4287597 258.053905,51.7886947 257.482569,51.2029831 C256.968807,50.6904407 256.601835,50.4341695 256.381651,50.4341695 C256.504446,52.3975461 256.374955,54.3685286 255.99633,56.2991186 C255.570642,59.184 255.06055,62.3910508 254.466055,65.9202712 C253.87156,69.4494915 253.317431,73.015322 252.80367,76.6177627 C252.333803,79.6974085 252.076317,82.8055904 252.033028,85.9204068 C252.033028,88.5124068 252.436697,90.2733559 253.244037,91.2032542 C254.051376,92.1331525 255.434862,91.7084746 257.394495,89.9292203 C259.074825,87.7773121 260.391264,85.3658564 261.291743,82.7902373 C262.275738,80.052783 262.940664,77.2114448 263.273394,74.3223051 C263.613672,71.4044817 263.635819,68.4584513 263.33945,65.5358644 C263.064312,62.8063839 262.416098,60.1272976 261.412844,57.5731525 L261.445872,57.5731525 Z" id="Shape"></path>
                    <path d="M328.458716,48.1387119 C327.776147,50.2621017 326.862385,52.8943729 325.717431,56.0355254 C324.572477,59.176678 323.251376,62.4715932 321.754128,65.9202712 C320.286239,69.4055593 318.752294,72.8652203 317.152294,76.2992542 C315.552294,79.7332881 314.055046,82.8744407 312.66055,85.7227119 C311.977982,86.9162034 311.188991,88.3806102 310.293578,90.1159322 C309.422022,91.8260023 308.420952,93.4672402 307.299083,95.0253559 C306.505429,96.4188473 305.334003,97.5608465 303.919266,98.3202712 C302.893258,98.8300807 301.70843,98.920702 300.616514,98.5728814 C299.518757,98.1791362 298.576997,97.4436883 297.930275,96.4751186 C297.115782,95.3059926 296.550021,93.9827871 296.26789,92.5871186 C295.382309,88.487256 295.082091,84.2830905 295.376147,80.0993898 C295.633028,75.4279322 296.080734,70.8846102 296.719266,66.4694237 C297.357798,62.0542373 298.040367,58.0820339 298.766972,54.5528136 C299.500917,51.0309153 299.948624,48.5450847 300.110092,47.095322 C300.198165,46.4143729 300.022018,46.4583051 299.60367,47.2271186 C299.185321,47.9959322 298.557798,49.1821017 297.754128,50.7966102 C296.950459,52.4111186 296.025688,54.3221695 295.012844,56.5297627 C294,58.7373559 292.921101,60.9229831 291.820183,63.1195932 C290.719266,65.3162034 289.618349,67.392 288.440367,69.3030508 C287.51875,70.8934492 286.409976,72.3683072 285.137615,73.6962712 C284.005071,75.0557726 282.496533,76.052712 280.8,76.5628475 C279.588021,76.8856004 278.296609,76.7032496 277.222018,76.0576271 C276.107485,75.3148283 275.222916,74.2764039 274.66789,73.0592542 C273.951858,71.5816999 273.518744,69.9837262 273.390826,68.3475254 C273.209337,66.2067493 273.187258,64.0554923 273.324771,61.9114576 C273.449541,59.1510508 273.684404,56.2844746 274.029358,53.3117288 C274.352876,50.4450027 274.823215,47.5966687 275.438532,44.7778983 C275.813002,42.6687449 276.558426,40.6422826 277.640367,38.7921356 C278.062984,38.2417688 278.729772,37.9338032 279.423853,37.9684068 C280.145009,38.0281926 280.833334,38.2952391 281.405505,38.7372203 C282.063704,39.2361698 282.589153,39.8885942 282.93578,40.6372881 C283.308504,41.341767 283.465467,42.1399961 283.387156,42.9327458 C282.792661,47.516339 282.154128,51.9754576 281.47156,56.3101017 C280.791627,60.6078758 280.449301,64.9520765 280.447706,69.3030508 C280.447706,69.3909153 280.53578,69.8522034 280.700917,70.7088814 C280.821478,71.4537369 281.12816,72.1562982 281.592661,72.7517288 C282.018349,73.2642712 282.656881,73.3265085 283.508257,72.9384407 C284.359633,72.5503729 285.508257,71.1701695 286.954128,68.7978305 C288.143119,66.7623051 289.33578,64.5656949 290.53211,62.208 C291.72844,59.8503051 292.899083,57.4706441 294.044037,55.0690169 C295.19633,52.6454237 296.322936,50.2877288 297.423853,47.9959322 C298.524771,45.7041356 299.588991,43.5807458 300.616514,41.6257627 C301.974312,39.1655593 303.166972,37.7011525 304.194495,37.2325424 C304.980915,36.7633283 305.962204,36.7633283 306.748624,37.2325424 C307.411747,37.6733045 307.907843,38.3228848 308.157798,39.0776949 C308.411009,39.8465085 308.499083,40.176 308.411009,40.176 C308.066055,42.8924746 307.533945,46.44 306.814679,50.8185763 C306.095413,55.1971525 305.361468,59.7624407 304.612844,64.5144407 C303.878899,69.2737627 303.19633,73.9012881 302.565138,78.3970169 C301.933945,82.8927458 301.566972,86.6306441 301.46422,89.6107119 C301.378281,90.626669 301.378281,91.6480428 301.46422,92.664 C301.496784,93.5695592 301.714052,94.4589905 302.102752,95.2779661 C302.332228,95.8609821 302.955332,96.1881536 303.566972,96.0467797 C304.205505,95.9223051 305.078899,95.1351864 306.187156,93.6854237 C307.631057,91.5646817 308.954248,89.3645969 310.150459,87.0955932 C311.618349,84.4230508 313.086239,81.5345085 314.554128,78.4299661 C316.022018,75.3254237 317.47156,72.1623051 318.902752,68.9406102 C320.304587,65.7115932 321.559633,62.6949153 322.66789,59.8905763 C323.776147,57.0862373 324.682569,54.6955932 325.387156,52.7186441 C326.121101,50.6391864 326.631193,49.1747797 326.917431,48.3254237 C327.082569,47.6444746 327.423853,47.2271186 327.941284,47.2271186 C328.458716,47.2271186 328.623853,47.3808814 328.458716,48.1387119 L328.458716,48.1387119 Z" id="Shape"></path>
                    <path d="M356.212844,1.63647458 C356.212844,1.47172881 356.444037,1.3179661 356.917431,1.18616949 C357.464018,1.05718952 358.033229,1.05718952 358.579817,1.18616949 C359.286089,1.34634109 359.943208,1.67412092 360.495413,2.14169492 C361.178736,2.72475805 361.650721,3.51596695 361.838532,4.39322034 C362.204252,6.01736755 362.326683,7.68661904 362.201835,9.34657627 C362.113761,11.3454915 361.922936,13.384678 361.629358,15.4641356 C361.33578,17.5435932 360.994495,19.5388475 360.605505,21.4498983 C360.26885,23.0258381 360.033507,24.6216335 359.900917,26.2275254 C360.414679,25.2097627 361.222018,23.8295593 362.322936,22.0869153 C363.423853,20.3442712 364.700917,18.5137627 366.154128,16.5953898 C367.622018,14.6404068 369.155963,12.751322 370.755963,10.9281356 C372.163027,9.25863027 373.801538,7.79782494 375.622018,6.58983051 C377.113416,5.6666793 378.843712,5.2007608 380.598165,5.24989831 C382.430672,5.32059893 384.085284,6.363799 384.93578,7.98467797 C386.6853,10.8204908 387.386269,14.1771599 386.917431,17.4740339 C386.491228,21.2903777 385.411317,25.0053734 383.724771,28.4570847 C381.979816,32.1099647 379.697761,35.482354 376.954128,38.4626441 C374.553699,41.2147089 371.621941,43.4559356 368.333945,45.0524746 C374.205505,43.7784407 379.038532,44.1811525 382.833028,46.2606102 C386.48175,48.1917158 389.242439,51.4534023 390.53945,55.3655593 C393.688073,53.9011525 396.818349,52.5429153 399.930275,51.2908475 C402.386612,50.2313408 404.927609,49.3790039 407.526606,48.7427797 C407.783486,49.4237288 407.911927,49.7202712 407.911927,49.6324068 C407.911927,49.5445424 408.040367,49.672678 408.297248,50.0168136 C402.763303,51.9717966 398.484404,53.6265763 395.46055,54.9811525 C393.906111,55.6225583 392.391484,56.3560693 390.924771,57.1777627 C391.251897,60.8405948 391.122469,64.529761 390.53945,68.1608136 C389.915695,72.3988731 388.906013,76.5713898 387.522936,80.6265763 C386.050998,84.9179667 384.209253,89.0741079 382.018349,93.0484068 C379.916172,96.9241182 377.390724,100.555964 374.488073,103.877695 C371.82334,106.93309 368.673041,109.530465 365.163303,111.565831 C361.870644,113.488737 358.123591,114.500998 354.308257,114.498305 C351.824239,114.582374 349.366832,113.965673 347.218349,112.719051 C345.387002,111.624447 343.955521,109.973104 343.133945,108.007322 C342.296779,105.817807 342.031585,103.451843 342.363303,101.131932 C342.749184,98.2246248 343.67907,95.415506 345.104587,92.8507119 C347.203414,89.0270418 349.709662,85.4404543 352.579817,82.1532203 C355.345798,79.0100139 358.357054,76.0903707 361.585321,73.4216949 C364.876763,70.7076832 368.332866,68.1987844 371.933945,65.9092881 C375.60367,63.5735593 379.478899,61.2597966 383.559633,58.968 C383.413166,57.1468973 383.043435,55.3505802 382.458716,53.6192542 C381.914719,52.0031622 380.994087,50.5389161 379.772477,49.3468475 C378.511767,48.1627291 376.975819,47.3097721 375.302752,46.864678 C373.166439,46.3430256 370.941069,46.2980238 368.785321,46.7328814 C366.202583,47.2999931 363.72484,48.2672441 361.442202,49.5994576 C358.763303,51.0638644 355.974312,52.5282712 353.075229,53.992678 C352.737615,55.6913898 352.26789,57.6463729 351.666055,59.8576271 C351.06422,62.0688814 350.447706,64.3204068 349.816514,66.6122034 C349.177982,68.904 348.601835,71.1335593 348.088073,73.3008814 C347.640072,75.1099773 347.298207,76.9435986 347.06422,78.7924068 C346.445262,78.2952982 345.613779,78.1501339 344.862385,78.408 C343.394495,76.7092881 342.693578,74.1831864 342.759633,70.8296949 C342.85847,66.9543619 343.322906,63.0969257 344.146789,59.3084746 C345.042202,54.9738305 346.190826,50.3023729 347.592661,45.2941017 C348.994495,40.2858305 350.355963,35.2336271 351.677064,30.1374915 C352.998165,25.0120678 354.124771,20.0001356 355.056881,15.1016949 C355.951617,10.671375 356.33942,6.15405663 356.212844,1.63647458 L356.212844,1.63647458 Z M383.669725,60.6264407 C379.338314,62.7094322 375.194591,65.16037 371.284404,67.9521356 C367.383016,70.7176798 363.671936,73.7411421 360.176147,77.0021695 C356.921482,80.0086745 353.917099,83.274065 351.192661,86.7661017 C348.906172,89.6490081 346.935329,92.7676273 345.313761,96.0687458 C344.64395,97.5603759 344.131111,99.1173251 343.783486,100.714576 C343.442081,102.096063 343.442081,103.539598 343.783486,104.921085 C344.139333,106.176592 344.962379,107.24912 346.084404,107.919458 C347.694288,108.76609 349.509483,109.146529 351.324771,109.017763 C354.790637,109.032506 358.186444,108.044413 361.100917,106.173153 C364.214224,104.190136 366.984197,101.716058 369.302752,98.8474576 C371.800409,95.761598 373.942308,92.4053235 375.688073,88.8418983 C377.459954,85.2846848 378.997168,81.6158665 380.289908,77.8588475 C381.432456,74.5946281 382.33034,71.2502375 382.976147,67.8532881 C383.46328,65.4756486 383.695778,63.0530985 383.669725,60.6264407 L383.669725,60.6264407 Z M353.944954,51.2029831 C354.518381,50.9467402 355.070566,50.6455954 355.59633,50.3023729 C356.616514,49.7092881 357.743119,49.028339 358.976147,48.2595254 C360.209174,47.4907119 361.423853,46.7255593 362.620183,45.9640678 C363.809174,45.2318644 364.616514,44.6790508 365.042202,44.3056271 C367.11114,42.6498039 368.895969,40.6688937 370.326606,38.440678 C372.052048,35.8133991 373.547482,33.0427554 374.79633,30.1594576 C376.125225,27.1025081 377.229066,23.9530158 378.099083,20.736 C378.961936,17.6183094 379.62384,14.4487089 380.080734,11.2466441 C380.337615,8.86698305 380.146789,7.44284746 379.508257,6.97423729 C378.731341,6.50079366 377.742476,6.55317521 377.020183,7.1060339 C375.867984,7.75884472 374.815152,8.57248401 373.893578,9.52230508 L371.284404,12.0813559 C366.679253,17.0429196 362.956139,22.7517661 360.275229,28.9623051 C357.261819,36.0923689 355.125159,43.5603097 353.911927,51.2029831 L353.944954,51.2029831 Z" id="Shape"></path>
                    <path d="M432.66055,48.1387119 C430.700917,54.5967458 428.40367,61.0108475 425.768807,67.3810169 C423.133945,73.7511864 420.565138,79.6088136 418.062385,84.9538983 C417.379817,86.3157966 416.785321,87.5678644 416.278899,88.7101017 C415.772477,89.852339 415.225688,91.0348475 414.638532,92.2576271 C414,93.4511186 413.299083,94.7031864 412.53578,96.0138305 C411.772477,97.3244746 410.836697,98.7888814 409.72844,100.407051 C408.826809,101.565004 407.670427,102.500691 406.348624,103.141831 C405.188048,103.742008 403.88931,104.026143 402.583486,103.965559 C401.425933,103.900054 400.343164,103.373803 399.577982,102.504814 C398.663724,101.276564 398.232839,99.756413 398.366972,98.2324068 C398.257863,96.012636 398.495567,93.7894428 399.07156,91.6425763 C399.710092,88.8016271 400.53945,85.6604746 401.559633,82.2191186 C402.579817,78.7777627 403.680734,75.2302373 404.862385,71.5765424 C406.051376,67.9155254 407.093578,64.5620339 407.988991,61.5160678 C408.884404,58.4701017 409.522936,55.9073898 409.904587,53.8279322 C410.286239,51.7924068 410.223853,50.6465085 409.717431,50.3902373 C407.435247,49.3481442 405.061985,48.5172677 402.627523,47.9080678 C400.558653,47.488831 398.650546,46.4951626 397.122936,45.0414915 C395.77449,43.5766988 394.993795,41.6802177 394.921101,39.6927458 C394.846353,37.5897617 395.17134,35.4916697 395.878899,33.5092881 C396.587355,31.4588945 397.600491,29.5262861 398.884404,27.7761356 C399.972347,26.2288658 401.311909,24.8739211 402.847706,23.767322 C403.778036,23.0196134 404.95932,22.6542842 406.150459,22.7458983 C407.051886,22.8795272 407.853106,23.3910915 408.352294,24.1517288 C408.908107,25.0410119 409.257899,26.0428714 409.376147,27.0842034 C409.545856,28.2238479 409.545856,29.3822538 409.376147,30.5218983 C409.038532,32.3890169 408.634862,34.1719322 408.165138,35.8706441 C407.695413,37.5693559 407.214679,39.1582373 406.722936,40.6372881 C406.253211,42.1016949 405.827523,43.3976949 405.445872,44.5252881 C405.06422,45.6528814 404.744954,46.5022373 404.488073,47.0733559 C405.33945,47.4174915 406.440367,47.8202034 407.790826,48.2814915 C409.141284,48.7427797 410.440367,49.1894237 411.688073,49.6214237 C413.155963,50.0461017 414.007339,51.3201356 414.242202,53.4435254 C414.473089,56.0436092 414.321017,58.6634108 413.790826,61.2195254 C413.233028,64.2801356 412.444037,67.615322 411.423853,71.2250847 C410.40367,74.8348475 409.302752,78.3384407 408.121101,81.7358644 C406.968807,85.1332881 405.926606,88.2341695 404.994495,91.0385085 C404.062385,93.8428475 403.423853,95.9662373 403.078899,97.408678 C402.719268,98.4743349 402.696211,99.6244431 403.012844,100.703593 C403.238581,101.29226 403.791076,101.692729 404.422018,101.725017 C405.163343,101.739848 405.893294,101.54159 406.524771,101.153898 C407.297798,100.722586 407.99051,100.161558 408.572477,99.4954576 C409.409164,98.5318265 410.146805,97.4868622 410.774312,96.3762712 C411.508257,95.1461695 412.242202,93.8501695 412.976147,92.4882712 C413.710092,91.1263729 414.4,89.7425085 415.045872,88.336678 C415.684404,86.9381695 416.300917,85.6421695 416.895413,84.448678 C418.598165,80.8828475 420.238532,77.2218305 421.816514,73.4656271 C423.394495,69.7094237 424.807339,66.1948475 426.055046,62.9218983 C427.288073,59.612339 428.388991,56.6395932 429.357798,54.003661 C430.326606,51.3677288 431.009174,49.3285424 431.405505,47.8861017 C431.489076,47.548734 431.66431,47.2409017 431.911927,46.9964746 C432.084058,46.7958828 432.303485,46.6411386 432.550459,46.5461695 C432.715596,46.5461695 432.847706,46.5461695 432.93578,46.7987797 C432.959769,47.2615077 432.86504,47.7226922 432.66055,48.1387119 L432.66055,48.1387119 Z M399.633028,40.2418983 C399.207339,43.639322 400.355963,45.7627119 403.078899,46.6120678 C403.592661,45.2574915 404.102752,43.8150508 404.609174,42.2847458 C405.115596,40.7544407 405.60367,39.2461017 406.073394,37.7597288 C406.543119,36.295322 406.910092,34.9151186 407.174312,33.6191186 C407.431166,32.5702957 407.622361,31.5065459 407.746789,30.4340339 C407.838742,29.6503125 407.88286,28.8617399 407.878899,28.072678 C407.895234,27.2954725 407.787463,26.5206268 407.559633,25.7772203 C407.44478,25.2678363 407.121383,24.8296978 406.66789,24.5690847 C406.286239,24.400678 405.710092,24.7411525 404.93945,25.5905085 C404.300138,26.391997 403.763862,27.27014 403.343119,28.2044746 C402.785321,29.3540339 402.253211,30.6061017 401.746789,31.960678 C401.240367,33.3152542 400.792661,34.7174237 400.40367,36.1671864 C400.061799,37.5080474 399.804415,38.8689469 399.633028,40.2418983 L399.633028,40.2418983 Z" id="Shape"></path>
                    <path d="M453.269725,48.7757288 C452.587156,50.7307119 451.798165,53.0444746 450.902752,55.7170169 C450.007339,58.3895593 449.027523,61.1719322 447.963303,64.0641356 C446.899083,66.9490169 445.750459,69.8375593 444.517431,72.7297627 C443.389864,75.4038442 442.087997,78.0014006 440.620183,80.5057627 C439.782758,81.9254056 438.844583,83.2834497 437.812844,84.5694915 C436.823833,85.8193204 435.557595,86.8231399 434.113761,87.5019661 C433.198645,87.915726 432.169218,88.0048604 431.19633,87.7545763 C430.264109,87.4875017 429.442249,86.9293473 428.851376,86.1620339 C428.142519,85.2361322 427.632808,84.1742611 427.354128,83.0428475 C426.990331,81.6296299 426.816332,80.1744607 426.836697,78.7155254 C426.828216,74.6449082 427.104114,70.5786502 427.662385,66.5463051 C428.212844,62.5997288 428.744954,58.6714576 429.258716,54.7614915 L430.282569,46.227661 C431.28914,45.5504154 432.587015,45.4787167 433.662385,46.0409492 C434.821954,46.6046981 435.581513,47.7539626 435.644037,49.039322 C435.704166,51.2388369 435.623267,53.4399371 435.401835,55.6291525 C435.159633,58.5579661 434.877064,61.6588475 434.554128,64.9317966 C434.231193,68.2047458 433.966972,71.3971525 433.761468,74.5090169 C433.519266,77.6501695 433.398165,80.1543051 433.398165,82.0214237 C433.398165,83.8885424 433.695413,84.8660339 434.289908,84.9538983 C435.081836,84.9590513 435.833968,84.6080822 436.337615,83.9983729 C437.16832,83.2129562 437.906992,82.3360226 438.53945,81.3844068 C439.222018,80.3666441 439.691743,79.6344407 439.948624,79.1877966 C440.888073,77.4012203 441.908257,75.2558644 443.009174,72.7517288 C444.110092,70.2475932 445.211009,67.5933559 446.311927,64.7890169 C447.420183,61.984678 448.462385,59.1620339 449.438532,56.3210847 C450.414679,53.4801356 451.288073,50.8698305 452.058716,48.4901695 C452.27837,47.9409337 452.662911,47.4729072 453.159633,47.1502373 C453.570642,46.879322 453.607339,47.4211525 453.269725,48.7757288 L453.269725,48.7757288 Z M431.691743,34.4977627 C432.008006,33.7628607 432.541973,33.1420162 433.222018,32.7185085 C433.835299,32.3178151 434.539149,32.0762049 435.269725,32.0155932 C435.927564,31.9682649 436.574967,32.1995014 437.053211,32.6526102 C437.595861,33.2464805 437.83172,34.0578578 437.691743,34.8492203 C437.60367,35.5814237 437.497248,36.4088136 437.372477,37.3313898 C437.248566,38.2100714 436.865325,39.0320825 436.27156,39.6927458 C435.870341,40.2670842 435.348041,40.7469099 434.741284,41.0985763 C434.240768,41.4086547 433.667696,41.5828187 433.078899,41.6037966 C432.545243,41.5934759 432.047615,41.333045 431.73578,40.9008814 C431.27418,40.1995874 431.029181,39.3784972 431.031193,38.5395254 C430.879631,37.1620868 431.104058,35.7693887 431.680734,34.5087458 L431.691743,34.4977627 Z" id="Shape"></path>
                    <path d="M495.027523,48.7757288 C494.344954,50.8112542 493.387156,53.5277288 492.154128,56.9251525 C490.921101,60.3225763 489.559633,63.932339 488.069725,67.7544407 C486.601835,71.5765424 485.049541,75.3364068 483.412844,79.0340339 C481.776147,82.731661 480.27156,85.9387119 478.899083,88.6551864 C478.305227,89.9020001 477.643696,91.1155967 476.917431,92.2905763 C476.037769,93.7550642 475.032148,95.1404837 473.911927,96.4311864 C472.947639,97.5878557 471.779892,98.5592893 470.466055,99.2977627 C469.347857,99.9440073 467.933812,99.7592206 467.020183,98.8474576 C465.821779,97.6912783 465.046523,96.1676486 464.818349,94.5201356 C464.357388,92.1890389 464.099545,89.8225118 464.047706,87.4470508 C463.964772,84.5791598 464.027237,81.7089196 464.234862,78.847322 C464.447706,75.7867119 464.744954,72.792 465.126606,69.8631864 C465.508257,66.9343729 465.911927,64.1959322 466.337615,61.6478644 C466.763303,59.0997966 467.130275,57.020339 467.438532,55.4094915 C466.723991,56.9126225 465.933999,58.3788876 465.07156,59.8027119 C464.176147,61.2671186 463.262385,62.7534915 462.330275,64.2618305 C461.398165,65.7701695 460.440367,67.1503729 459.456881,68.4024407 C458.473394,69.6764746 457.559633,70.7747797 456.715596,71.6973559 C455.374302,73.2511659 453.689706,74.4730775 451.794495,75.2668475 C450.542192,75.7835794 449.131279,75.7597224 447.897248,75.2009492 C446.697659,74.5514845 445.751618,73.5187244 445.211009,72.2684746 C443.657462,68.9409282 443.318658,65.1763044 444.253211,61.6258983 C444.723013,59.6757145 445.386858,57.7772099 446.234862,55.9586441 C447.070244,54.1600076 448.053417,52.4334358 449.174312,50.7966102 C450.164728,49.3096188 451.370475,47.977192 452.752294,46.8427119 C453.912831,45.7938962 455.355569,45.1066904 456.902752,44.8657627 C458.359749,44.6294036 459.849373,44.6854119 461.284404,45.0305085 C462.64476,45.3701468 463.924355,45.9748325 465.049541,46.8097627 C466.13808,47.5997617 467.10596,48.5431486 467.922936,49.6104407 C468.348624,47.2307797 468.774312,44.4264407 469.2,41.1974237 C469.625688,37.9684068 470.113761,34.6991186 470.66422,31.3895593 C471.212431,28.1430016 471.947593,24.930633 472.866055,21.7684068 C473.641007,18.9909866 474.749984,16.3173179 476.168807,13.8056949 C477.103437,12.0753102 478.3116,10.5065714 479.746789,9.15986441 C480.78245,8.18550692 481.987466,7.40764127 483.302752,6.86440678 C484.270917,6.45230475 485.35202,6.38635101 486.363303,6.67769492 C487.258074,6.98152941 487.979485,7.65324895 488.344954,8.52284746 C489.134191,10.4599589 489.440203,12.5592714 489.236697,14.6404068 C489.035173,17.0876543 488.543673,19.502457 487.772477,21.8343051 C486.927862,24.4274945 485.90526,26.9595851 484.711927,29.4126102 C483.478899,31.960678 482.179817,34.3806102 480.814679,36.6724068 C479.449541,38.9642034 478.12844,41.0656271 476.851376,42.976678 C475.574312,44.8877288 474.554128,46.436339 473.790826,47.6225085 C473.19633,51.4446102 472.579817,55.5229831 471.941284,59.8576271 C471.302752,64.1922712 470.726606,68.3768136 470.212844,72.4112542 C469.699083,76.4456949 469.251376,80.1616271 468.869725,83.5590508 C468.534138,86.263472 468.343042,88.9837927 468.297248,91.7084746 C468.217211,92.8576874 468.280075,94.0123648 468.484404,95.1461695 C468.697248,96.4202034 469.144954,97.1011525 469.827523,97.1890169 C470.847706,97.2768814 472.124771,96.2774237 473.658716,94.1906441 C475.46925,91.6475239 477.070794,88.9625797 478.447706,86.1620339 C480.106422,82.8964068 481.765138,79.2866441 483.423853,75.3327458 C485.082569,71.3788475 486.634862,67.5567458 488.080734,63.8664407 C489.548624,60.2054237 490.781651,56.9361356 491.779817,54.0585763 C492.777982,51.1810169 493.511927,49.248 493.981651,48.2595254 C494.113357,47.7577415 494.402727,47.3112455 494.807339,46.9854915 C495.122936,46.8244068 495.19633,47.4211525 495.027523,48.7757288 L495.027523,48.7757288 Z M453.522936,55.2776949 C452.951617,56.4404634 452.440845,57.6318792 451.992661,58.8471864 C451.478899,60.2090847 451.009174,61.5892881 450.583486,62.9877966 C450.176817,64.301769 449.856866,65.6409075 449.625688,66.9966102 C449.424867,68.131824 449.318084,69.281607 449.306422,70.4343051 C449.306422,72.0451525 449.541284,73.0629153 450.011009,73.4875932 C450.503077,73.91634 451.202252,74.0153701 451.794495,73.7402034 C452.601117,73.4250084 453.346283,72.9715358 453.99633,72.4002712 C454.730275,71.7632542 455.368807,71.1884746 455.911927,70.6759322 C457.385262,69.029113 458.770665,67.3060502 460.062385,65.5138983 C461.383486,63.6907119 462.576147,61.8858305 463.640367,60.0992542 C464.704587,58.312678 465.6,56.6578983 466.326606,55.1349153 C466.924035,53.964297 467.375117,52.724921 467.669725,51.4446102 C466.969881,49.9227192 465.816538,48.653217 464.366972,47.8092203 C463.212621,47.1797084 461.845954,47.0640964 460.601835,47.4907119 C459.163369,48.0459946 457.885003,48.9477829 456.880734,50.115661 C455.507831,51.6582443 454.375848,53.3984719 453.522936,55.2776949 L453.522936,55.2776949 Z M487.87156,10.0494915 C487.780241,9.47978691 487.400536,8.99750168 486.867372,8.77401473 C486.334208,8.55052778 485.723165,8.61752022 485.251376,8.95118644 C483.930275,9.54427119 482.546789,11.2429831 481.100917,14.047322 C479.06034,18.8796816 477.561333,23.9222214 476.631193,29.0831186 C475.691743,34.2671186 474.840367,39.4474576 474.077064,44.6241356 C475.981583,42.1720339 477.731736,39.6043874 479.317431,36.936 C481.185006,33.8408198 482.847282,30.6268843 484.293578,27.3148475 C485.664305,24.2063806 486.769157,20.9878687 487.59633,17.6936949 C488.367045,15.2152484 488.462045,12.5767157 487.87156,10.0494915 L487.87156,10.0494915 Z" id="Shape"></path>
                    <path d="M533.944954,48.0178983 C534.858059,47.6175401 535.826972,47.3582948 536.818349,47.2490847 C537.368807,47.2490847 537.688073,47.3589153 537.776147,47.5675932 C537.86422,47.7762712 537.776147,48.0178983 537.390826,48.2705085 C537.065097,48.5168646 536.689373,48.6892878 536.289908,48.7757288 C534.706171,49.2303632 533.199569,49.9189418 531.820183,50.8185763 C529.779817,52.0120678 527.629358,53.3300339 525.368807,54.7724746 C523.108257,56.2149153 521.023853,57.6170847 519.115596,58.9789831 C517.808147,59.8358302 516.587679,60.8179809 515.47156,61.9114576 C515.559323,63.6530019 515.559323,65.3978455 515.47156,67.1393898 C515.383486,69.6069153 515.233028,72.3233898 515.020183,75.2888136 C514.807339,78.2542373 514.572477,81.2709153 514.315596,84.3388475 C514.058716,87.3994576 513.761468,90.1159322 513.423853,92.4882712 C513.086239,94.8606102 512.616514,97.5148475 512.014679,100.450983 C511.406602,103.418934 510.638514,106.352008 509.713761,109.237424 C508.800229,112.110705 507.647594,114.902795 506.26789,117.584542 C505.0266,120.034277 503.385907,122.261216 501.412844,124.174373 C498.770642,126.722441 496.300917,128.146576 494.00367,128.44678 C491.90842,128.796629 489.76134,128.268087 488.069725,126.986034 C486.227816,125.439517 484.893244,123.37737 484.238532,121.066169 C483.311035,118.080554 482.985504,114.941228 483.280734,111.829424 C483.885547,107.329572 485.111865,102.934911 486.924771,98.7705763 C488.833576,94.2548966 491.040246,89.8703748 493.530275,85.6458305 C495.880586,81.6396453 498.453402,77.7675785 501.236697,74.0477288 C503.40684,71.088046 505.752304,68.2603636 508.26055,65.5797966 C508.26055,64.4741695 508.304587,62.9438644 508.392661,60.9888814 C508.480734,59.0338983 508.565138,57.016678 508.645872,54.9372203 C508.726606,52.8577627 508.788991,50.9247458 508.833028,49.1381695 C508.887161,47.9078839 508.8651,46.6754375 508.766972,45.4478644 C508.253211,46.9781695 507.486239,48.9734237 506.466055,51.4336271 C505.445872,53.8938305 504.297248,56.3357288 503.020183,58.759322 C501.834474,61.0456435 500.491827,63.2474975 499.001835,65.3491525 C498.025941,66.9227716 496.636065,68.1991837 494.983486,69.0394576 C492.598165,69.976678 490.788991,69.7863051 489.555963,68.468339 C488.298414,67.071745 487.526203,65.3075776 487.354128,63.4381017 C487.097946,60.7680001 487.097946,58.0795932 487.354128,55.4094915 C487.563901,52.6282488 488.103446,49.8816233 488.961468,47.2271186 C489.845702,44.6125785 491.114616,42.1436972 492.726606,39.9014237 C494.359887,37.6602571 496.449604,35.7888406 498.858716,34.4098983 C500.514656,33.5039107 502.407322,33.1209137 504.286239,33.3115932 C506.285481,33.5375798 508.186875,34.2963323 509.790826,35.5082034 C509.867818,34.9447351 509.996806,34.3895642 510.176147,33.8497627 C510.335731,33.4629338 510.443092,33.0566676 510.495413,32.6416271 C510.495413,32.2572203 510.638532,32.0265763 510.814679,31.9387119 C511.279472,31.6785919 511.820947,31.5892079 512.344954,31.6861017 C512.942619,31.76996 513.524868,31.9401505 514.073394,32.191322 C514.596364,32.4236515 515.073571,32.7472336 515.482569,33.1468475 C515.813064,33.4217443 516.019275,33.8173631 516.055046,34.2451525 C515.886239,39.5096949 515.779817,43.6503051 515.73578,46.6669831 C515.691743,49.683661 515.647706,52.063322 515.60367,53.8059661 C515.559633,55.5486102 515.537615,56.800678 515.537615,57.5621695 L515.537615,59.8576271 C516.469725,59.1254237 517.684404,58.2138305 519.181651,57.1228475 C520.678899,56.0318644 522.297248,54.9335593 524.036697,53.8279322 C525.783486,52.6783729 527.530275,51.616678 529.277064,50.6428475 C531.023853,49.6690169 532.579817,48.7940339 533.944954,48.0178983 L533.944954,48.0178983 Z M498.715596,119.715254 C500.422744,116.874777 501.772373,113.835175 502.733945,110.66522 C503.803017,107.204348 504.666897,103.683679 505.321101,100.121492 C506.00367,96.4604746 506.513761,92.8507119 506.851376,89.2922034 C507.188991,85.7336949 507.445872,82.4644068 507.622018,79.484339 C507.790826,76.5115932 507.897248,73.9854915 507.941284,71.9060339 C507.985321,69.8265763 508.047706,68.4463729 508.12844,67.7654237 C505.811122,70.2806846 503.656324,72.9402785 501.677064,75.7281356 C499.030077,79.3740396 496.578923,83.1575307 494.333945,87.0626441 C491.958642,91.2036608 489.883611,95.509043 488.124771,99.9457627 C486.462059,103.909904 485.386565,108.094377 484.93211,112.367593 C484.762485,114.744202 484.978096,117.132549 485.570642,119.440678 C485.981152,121.433084 486.955387,123.266399 488.377982,124.723525 C489.571805,125.897495 491.330198,126.293472 492.913761,125.744949 C494.66055,125.225085 496.594495,123.215186 498.715596,119.715254 L498.715596,119.715254 Z M506.422018,47.4797288 C506.93578,46.2056949 507.361468,45.1073898 507.699083,44.1848136 C508.036697,43.2622373 508.311927,42.4568136 508.524771,41.7685424 C508.737615,41.036339 508.92844,40.3370847 509.097248,39.6707797 C509.266055,39.0044746 509.475229,38.228339 509.724771,37.3423729 C508.907543,36.23498 507.746444,35.4280008 506.422018,35.0469153 C504.843374,34.7631652 503.218255,35.162491 501.952294,36.1452203 C500.582445,37.0232014 499.478606,38.2573272 498.759633,39.7147119 C497.671357,41.6486413 496.754125,43.6735249 496.018349,45.7663729 C495.18398,48.1000682 494.500016,50.4845923 493.970642,52.9053559 C493.471232,55.1740847 493.103647,57.4697075 492.869725,59.7807458 C492.653379,61.516707 492.653379,63.2727168 492.869725,65.008678 C493.082569,66.4071864 493.530275,67.1064407 494.212844,67.1064407 C495.144954,67.1943051 496.209174,66.5133559 497.405505,65.0635932 C498.736134,63.4138658 499.911734,61.6454575 500.917431,59.7807458 C502.069725,57.7012881 503.133945,55.5339661 504.110092,53.2787797 C505.086239,51.0235932 505.856881,49.0978983 506.422018,47.5016949 L506.422018,47.4797288 Z" id="Shape"></path>
                    <path d="M570.275229,48.7757288 C569.33578,50.7307119 568.165138,53.0884068 566.763303,55.8488136 C565.361468,58.6092203 563.787156,61.4977627 562.040367,64.5144407 C560.293578,67.5311186 558.506422,70.5258305 556.678899,73.4985763 C554.851376,76.471322 553.042202,79.1475254 551.251376,81.5271864 C549.741079,83.5248917 548.096953,85.4183052 546.330275,87.1944407 C544.984439,88.6520319 543.291888,89.747502 541.409174,90.3795254 C539.77752,90.843937 538.023428,90.5623391 536.620183,89.6107119 C535.042202,88.6368814 533.530275,86.5757288 532.084404,83.4272542 C531.086814,80.9709667 530.463393,78.3795426 530.234862,75.7391186 C529.841916,72.2281008 529.713116,68.6926528 529.849541,65.1624407 C529.990932,61.2671936 530.44003,57.3891369 531.192661,53.564339 C531.903033,49.847333 533.01026,46.216882 534.495413,42.7350508 C535.763594,39.6807124 537.534807,36.8594349 539.73578,34.3879322 C541.645125,32.1911235 544.275104,30.7430068 547.155963,30.3022373 C548.528196,30.0080666 549.961076,30.2352169 551.174312,30.9392542 C552.223903,31.6009071 553.030996,32.5833011 553.475229,33.7399322 C553.959724,35.0636464 554.154913,36.4754078 554.047706,37.8805424 C553.959572,39.5244944 553.587111,41.1408561 552.946789,42.6581695 C551.540024,45.5269274 549.570936,48.08515 547.155963,50.1815593 C544.517446,52.7307616 541.421281,54.7614081 538.029358,56.167322 C537.86055,57.016678 537.669725,58.6934237 537.456881,61.1975593 C537.244037,63.7016949 537.093578,66.4181695 537.005505,69.3469831 C536.917431,72.2757966 536.961468,75.1863051 537.137615,78.0785085 C537.211835,80.3623326 537.555488,82.6294823 538.161468,84.8330847 C538.844037,86.8686102 539.86422,87.9303051 541.222018,88.0181695 C542.579817,88.1060339 544.113761,87.3006102 545.823853,85.6018983 C548.483974,82.8288256 550.859121,79.7970288 552.913761,76.5518644 C555.423853,72.7297627 557.809174,68.8637288 560.069725,64.9537627 C562.330275,61.0437966 564.26422,57.4999322 565.87156,54.3221695 C567.486239,51.1370847 568.506422,49.035661 568.93211,48.0178983 C569.188991,47.3369492 569.555963,46.9708475 570.033028,46.9195932 C570.510092,46.868339 570.590826,47.4870508 570.275229,48.7757288 L570.275229,48.7757288 Z M546.363303,32.9491525 C544.491743,34.2231864 542.873394,36.6028475 541.508257,40.0881356 C539.854821,44.7533498 538.699794,49.579701 538.062385,54.4869153 C539.455013,54.0006727 540.768204,53.3123278 541.959633,52.4440678 C543.503563,51.378062 544.954581,50.1839961 546.297248,48.8745763 C547.656929,47.5646688 548.895004,46.1347024 549.99633,44.6021695 C550.939472,43.3751669 551.614518,41.9646749 551.977982,40.4615593 C552.30735,39.1297465 552.437199,37.7566138 552.363303,36.3868475 C552.331194,35.2892375 552.024661,34.2170306 551.47156,33.267661 C551.041689,32.5082004 550.287487,31.9863659 549.423853,31.8508475 C548.300561,31.813906 547.205619,32.2068353 546.363303,32.9491525 L546.363303,32.9491525 Z" id="Shape"></path>
                    <path d="M579.566972,45.7224407 C578.627523,46.4033898 578.073394,46.7218983 577.904587,46.6779661 C577.72844,46.6779661 577.563303,46.2715932 577.398165,45.579661 C579.18567,44.5761641 580.613806,43.0400487 581.482569,41.1864407 C582.219138,39.6119639 582.595203,37.8936736 582.583486,36.1562034 C582.598087,34.7021384 582.217646,33.2712765 581.482569,32.0155932 C580.986208,31.0102244 579.984167,30.3507825 578.862385,30.2912542 C577.673394,30.2912542 576.502752,31.0234576 575.350459,32.4878644 C574.198165,33.9522712 573.324771,36.4783729 572.730275,40.0661695 C572.464685,41.6441368 572.357732,43.244622 572.411009,44.8437966 C572.455046,46.5864407 572.583486,48.3290847 572.79633,50.0717288 C573.009174,51.8143729 573.284404,53.4911186 573.622018,55.1019661 C573.880921,56.486993 574.249037,57.8494641 574.722936,59.176678 C576.273388,57.6654057 577.961394,56.301292 579.765138,55.1019661 C581.803756,53.7232983 583.937514,52.4901231 586.150459,51.411661 C588.35242,50.3318609 590.61278,49.3748626 592.921101,48.5450847 C594.936893,47.8036585 597.009778,47.2269787 599.119266,46.8207458 C599.278866,47.051676 599.387671,47.3136872 599.438532,47.5895593 C599.454324,47.8003857 599.573934,47.9896604 599.757798,48.0947797 C597.726844,48.2300669 595.736204,48.7246865 593.878899,49.5555254 C591.32778,50.5682915 588.832507,51.7158133 586.40367,52.9932203 C584.008081,54.2415821 581.685112,55.6239889 579.445872,57.1338305 C577.849834,58.0778501 576.460743,59.3329094 575.361468,60.8241356 C576.509135,64.107945 577.490196,67.4473664 578.300917,70.8296949 C579.156581,74.3295633 579.785406,77.8807781 580.183486,81.4612881 C580.559072,84.8009534 580.709868,88.161977 580.634862,91.5217627 C580.607559,94.3554422 580.154826,97.1690481 579.291743,99.8688814 C578.607092,102.015612 577.356013,103.938993 575.669725,105.437288 C573.933588,106.843315 571.679953,107.44632 569.47156,107.095729 C567.937328,107.004001 566.538834,106.18811 565.706422,104.899119 C564.679806,103.444525 563.902272,101.830052 563.405505,100.121492 C562.841912,98.2757579 562.472941,96.3763856 562.304587,94.4542373 C562.13578,92.4992542 562.051376,90.8847458 562.051376,89.6107119 C562.055129,85.2409209 562.655133,80.891977 563.834862,76.683661 C564.980014,72.5426917 566.617321,68.5531597 568.711927,64.8 C567.552294,60.6630508 566.572477,56.4894915 565.772477,52.279322 C565.003994,48.1383406 565.268654,43.8723306 566.543119,39.8574915 C566.997815,38.431782 567.61857,37.0642008 568.392661,35.7827797 C569.182652,34.4487847 570.124695,33.2104501 571.2,32.0924746 C572.192614,31.0368214 573.372,30.1729976 574.678899,29.5444068 C575.91181,28.9573694 577.300942,28.7802903 578.642202,29.0391864 C580.471333,29.241049 582.078354,30.3414508 582.924771,31.971661 C583.65078,33.5193119 583.918166,35.2417655 583.695413,36.936 C583.474639,38.7502632 582.957714,40.5162488 582.165138,42.1639322 C581.599615,43.5418883 580.708182,44.7628172 579.566972,45.7224407 L579.566972,45.7224407 Z M569.482569,66.9966102 C568.057603,69.4269334 566.902168,72.0048417 566.036697,74.6847458 C565.094398,77.5472115 564.40913,80.4876065 563.988991,83.4711864 C563.56273,86.445787 563.433656,89.455269 563.60367,92.455322 C563.725273,95.190879 564.240642,97.8947661 565.133945,100.483932 C565.522581,101.603373 566.083415,102.655684 566.79633,103.603119 C567.32089,104.39052 568.046854,105.023757 568.899083,105.437288 C569.609979,105.723419 570.408492,105.69952 571.100917,105.37139 C572.027197,104.841739 572.713262,103.976358 573.016514,102.955119 C574.081913,100.437679 574.603344,97.7244414 574.546789,94.9924068 C574.535569,91.8542727 574.277899,88.7218393 573.776147,85.6238644 C573.262385,82.3948475 572.601835,79.1658305 571.794495,75.9368136 C570.987156,72.7077966 570.216514,69.7277288 569.482569,66.9966102 L569.482569,66.9966102 Z" id="Shape"></path>
                </g>
            </g>
        </g>
    </g>
</svg>