<?xml version="1.0" encoding="utf-8"?>
<!-- Generator: Adobe Illustrator 22.0.1, SVG Export Plug-In . SVG Version: 6.00 Build 0)  -->
<svg version="1.1" id="Layer_1" xmlns="http://www.w3.org/2000/svg" xmlns:xlink="http://www.w3.org/1999/xlink" x="0px" y="0px"
	 viewBox="0 0 88.8 19.4" style="enable-background:new 0 0 88.8 19.4;" xml:space="preserve">
<style type="text/css">
	.st0{fill:#4460AB;}
</style>
<g>
	<g>
		<polygon class="st0" points="17,12.6 12.7,9.6 8.5,12.6 4.1,9.5 4.3,9.1 8.5,12 12.7,9 17,12 21.2,9 25.6,12.1 25.4,12.5 
			21.2,9.6 		"/>
	</g>
	<g>
		<polygon class="st0" points="17,11.3 12.7,8.4 8.5,11.3 4.1,8.3 4.3,7.9 8.5,10.7 12.7,7.8 17,10.7 21.2,7.8 25.6,10.8 25.4,11.2 
			21.2,8.4 		"/>
	</g>
</g>
<g>
	<g>
		<polygon class="st0" points="76.1,12.6 71.8,9.6 67.6,12.6 63.2,9.5 63.4,9.1 67.6,12 71.8,9 76.1,12 80.3,9 84.7,12.1 84.5,12.5 
			80.3,9.6 		"/>
	</g>
	<g>
		<polygon class="st0" points="76.1,11.3 71.8,8.4 67.6,11.3 63.2,8.3 63.4,7.9 67.6,10.7 71.8,7.8 76.1,10.7 80.3,7.8 84.7,10.8 
			84.5,11.2 80.3,8.4 		"/>
	</g>
</g>
<g>
	<g>
		<polygon class="st0" points="46.6,12.6 42.3,9.6 38.1,12.6 33.6,9.5 33.9,9.1 38,12 42.2,9 46.5,12 50.7,9 55.2,12.1 54.9,12.5 
			50.8,9.6 		"/>
	</g>
	<g>
		<polygon class="st0" points="46.6,11.3 42.3,8.4 38.1,11.3 33.6,8.3 33.9,7.9 38,10.7 42.2,7.8 46.5,10.7 50.7,7.8 55.2,10.8 
			54.9,11.2 50.8,8.4 		"/>
	</g>
</g>
</svg>
